# MagicaVoxel @ Ephtracy

# group
o 

# material
mtllib light-switch-1.mtl
usemtl palette

# normals
vn -1 0 0
vn 1 0 0
vn 0 0 1
vn 0 0 -1
vn 0 -1 0
vn 0 1 0

# texcoords
vt 0.197266 0.5
vt 0.201172 0.5
vt 0.205078 0.5

# verts
v -0.2 0 0.1
v -0.2 0 0
v -0.2 0.7 0.1
v -0.2 0.7 0
v 0 0.4 0
v 0 0.4 -0.1
v 0 0.5 0
v 0 0.5 -0.1
v 0.1 0.4 0
v 0.1 0.4 -0.1
v 0.1 0.5 0
v 0.1 0.5 -0.1
v 0.3 0 0.1
v 0.3 0 0
v 0.3 0.7 0.1
v 0.3 0.7 0
v -0.2 0 0.1
v -0.2 0.7 0.1
v 0 0.2 0.1
v 0 0.4 0.1
v 0 0.5 0.1
v 0.1 0.2 0.1
v 0.1 0.4 0.1
v 0.1 0.5 0.1
v 0.3 0 0.1
v 0.3 0.7 0.1
v -0.2 0 0
v -0.2 0.7 0
v 0 0.2 0
v 0 0.4 0
v 0 0.5 0
v 0.1 0.2 0
v 0.1 0.4 0
v 0.1 0.5 0
v 0.3 0 0
v 0.3 0.7 0
v 0 0.4 -0.1
v 0 0.5 -0.1
v 0.1 0.4 -0.1
v 0.1 0.5 -0.1
v -0.2 0 0.1
v 0.3 0 0.1
v -0.2 0 0
v 0.3 0 0
v 0 0.4 0
v 0.1 0.4 0
v 0 0.4 -0.1
v 0.1 0.4 -0.1
v 0 0.5 0
v 0.1 0.5 0
v 0 0.5 -0.1
v 0.1 0.5 -0.1
v -0.2 0.7 0.1
v 0.3 0.7 0.1
v -0.2 0.7 0
v 0.3 0.7 0

# faces
f 3/1/1 2/1/1 1/1/1
f 4/1/1 2/1/1 3/1/1
f 7/2/1 6/2/1 5/2/1
f 8/2/1 6/2/1 7/2/1
f 9/2/2 10/2/2 11/2/2
f 11/2/2 10/2/2 12/2/2
f 13/1/2 14/1/2 15/1/2
f 15/1/2 14/1/2 16/1/2
f 19/1/3 18/1/3 17/1/3
f 20/1/3 18/1/3 19/1/3
f 21/1/3 18/1/3 20/1/3
f 22/1/3 19/1/3 17/1/3
f 22/2/3 20/2/3 19/2/3
f 23/3/3 21/3/3 20/3/3
f 23/2/3 20/2/3 22/2/3
f 24/1/3 18/1/3 21/1/3
f 24/3/3 21/3/3 23/3/3
f 25/1/3 23/1/3 22/1/3
f 25/1/3 22/1/3 17/1/3
f 25/1/3 24/1/3 23/1/3
f 26/1/3 18/1/3 24/1/3
f 26/1/3 24/1/3 25/1/3
f 27/1/4 28/1/4 29/1/4
f 29/1/4 28/1/4 30/1/4
f 30/1/4 28/1/4 31/1/4
f 27/1/4 29/1/4 32/1/4
f 29/2/4 30/2/4 32/2/4
f 32/2/4 30/2/4 33/2/4
f 31/1/4 28/1/4 34/1/4
f 32/1/4 33/1/4 35/1/4
f 33/1/4 34/1/4 35/1/4
f 27/1/4 32/1/4 35/1/4
f 34/1/4 28/1/4 36/1/4
f 35/1/4 34/1/4 36/1/4
f 37/2/4 38/2/4 39/2/4
f 39/2/4 38/2/4 40/2/4
f 43/1/5 42/1/5 41/1/5
f 44/1/5 42/1/5 43/1/5
f 47/2/5 46/2/5 45/2/5
f 48/2/5 46/2/5 47/2/5
f 49/2/6 50/2/6 51/2/6
f 51/2/6 50/2/6 52/2/6
f 53/1/6 54/1/6 55/1/6
f 55/1/6 54/1/6 56/1/6
