# MagicaVoxel @ Ephtracy

# group
o 

# material
mtllib night_light.mtl
usemtl palette

# normals
vn -1 0 0
vn 1 0 0
vn 0 0 1
vn 0 0 -1
vn 0 -1 0
vn 0 1 0

# texcoords
vt 0.158203 0.5
vt 0.166016 0.5
vt 0.169922 0.5
vt 0.177734 0.5
vt 0.181641 0.5
vt 0.193359 0.5

# verts
v -0.2 0 0.2
v -0.2 0 0.1
v -0.2 1 0.2
v -0.2 1 0.1
v -0.1 0.6 0.1
v -0.1 0.6 -0.1
v -0.1 0.7 0.1
v -0.1 0.7 -0.1
v -0.1 0.8 0
v -0.1 0.8 -0.1
v -0.1 0.9 0.1
v -0.1 0.9 0
v -0.1 1 0.1
v -0.1 1.2 0.1
v -0.1 1.2 -0.1
v 0 0.9 -0.1
v 0 0.9 -0.2
v 0 1 -0.1
v 0 1 -0.2
v 0.1 0.9 -0.1
v 0.1 0.9 -0.2
v 0.1 1 -0.1
v 0.1 1 -0.2
v 0.2 0.6 0.1
v 0.2 0.6 -0.1
v 0.2 0.7 0.1
v 0.2 0.7 -0.1
v 0.2 0.8 0
v 0.2 0.8 -0.1
v 0.2 0.9 0.1
v 0.2 0.9 0
v 0.2 1 0.1
v 0.2 1.2 0.1
v 0.2 1.2 -0.1
v 0.3 0 0.2
v 0.3 0 0.1
v 0.3 1 0.2
v 0.3 1 0.1
v -0.2 0 0.2
v -0.2 1 0.2
v -0.1 0.3 0.2
v -0.1 0.4 0.2
v -0.1 0.8 0.2
v -0.1 0.9 0.2
v 0 0.1 0.2
v 0 0.2 0.2
v 0 0.3 0.2
v 0 0.4 0.2
v 0 0.6 0.2
v 0 0.7 0.2
v 0 0.8 0.2
v 0 0.9 0.2
v 0.1 0.1 0.2
v 0.1 0.2 0.2
v 0.1 0.3 0.2
v 0.1 0.4 0.2
v 0.1 0.6 0.2
v 0.1 0.7 0.2
v 0.1 0.8 0.2
v 0.1 0.9 0.2
v 0.2 0.3 0.2
v 0.2 0.4 0.2
v 0.2 0.8 0.2
v 0.2 0.9 0.2
v 0.3 0 0.2
v 0.3 1 0.2
v -0.1 1 0.1
v -0.1 1.2 0.1
v 0.2 1 0.1
v 0.2 1.2 0.1
v -0.2 0 0.1
v -0.2 1 0.1
v -0.1 0.3 0.1
v -0.1 0.4 0.1
v -0.1 0.6 0.1
v -0.1 0.7 0.1
v -0.1 0.9 0.1
v -0.1 1 0.1
v 0 0.1 0.1
v 0 0.2 0.1
v 0 0.3 0.1
v 0 0.4 0.1
v 0.1 0.1 0.1
v 0.1 0.2 0.1
v 0.1 0.3 0.1
v 0.1 0.4 0.1
v 0.2 0.3 0.1
v 0.2 0.4 0.1
v 0.2 0.6 0.1
v 0.2 0.7 0.1
v 0.2 0.9 0.1
v 0.2 1 0.1
v 0.3 0 0.1
v 0.3 1 0.1
v -0.1 0.6 -0.1
v -0.1 0.7 -0.1
v -0.1 0.8 -0.1
v -0.1 1.2 -0.1
v 0 0.9 -0.1
v 0 1 -0.1
v 0.1 0.9 -0.1
v 0.1 1 -0.1
v 0.2 0.6 -0.1
v 0.2 0.7 -0.1
v 0.2 0.8 -0.1
v 0.2 1.2 -0.1
v 0 0.9 -0.2
v 0 1 -0.2
v 0.1 0.9 -0.2
v 0.1 1 -0.2
v -0.2 0 0.2
v 0.3 0 0.2
v -0.2 0 0.1
v 0.3 0 0.1
v -0.1 0.6 0.1
v 0.2 0.6 0.1
v -0.1 0.6 -0.1
v 0.2 0.6 -0.1
v 0 0.9 -0.1
v 0.1 0.9 -0.1
v 0 0.9 -0.2
v 0.1 0.9 -0.2
v -0.2 1 0.2
v 0.3 1 0.2
v -0.2 1 0.1
v -0.1 1 0.1
v 0.2 1 0.1
v 0.3 1 0.1
v 0 1 -0.1
v 0.1 1 -0.1
v 0 1 -0.2
v 0.1 1 -0.2
v -0.1 1.2 0.1
v 0.2 1.2 0.1
v -0.1 1.2 -0.1
v 0.2 1.2 -0.1

# faces
f 3/4/1 2/4/1 1/4/1
f 4/4/1 2/4/1 3/4/1
f 7/2/1 6/2/1 5/2/1
f 8/2/1 6/2/1 7/2/1
f 9/3/1 8/3/1 7/3/1
f 10/3/1 8/3/1 9/3/1
f 11/3/1 9/3/1 7/3/1
f 12/5/1 10/5/1 9/5/1
f 12/3/1 9/3/1 11/3/1
f 13/5/1 12/5/1 11/5/1
f 14/5/1 12/5/1 13/5/1
f 15/5/1 10/5/1 12/5/1
f 15/5/1 12/5/1 14/5/1
f 18/6/1 17/6/1 16/6/1
f 19/6/1 17/6/1 18/6/1
f 20/6/2 21/6/2 22/6/2
f 22/6/2 21/6/2 23/6/2
f 24/2/2 25/2/2 26/2/2
f 26/2/2 25/2/2 27/2/2
f 26/3/2 27/3/2 28/3/2
f 28/3/2 27/3/2 29/3/2
f 26/3/2 28/3/2 30/3/2
f 28/5/2 29/5/2 31/5/2
f 30/3/2 28/3/2 31/3/2
f 30/5/2 31/5/2 32/5/2
f 32/5/2 31/5/2 33/5/2
f 31/5/2 29/5/2 34/5/2
f 33/5/2 31/5/2 34/5/2
f 35/4/2 36/4/2 37/4/2
f 37/4/2 36/4/2 38/4/2
f 41/4/3 40/4/3 39/4/3
f 42/4/3 40/4/3 41/4/3
f 43/4/3 40/4/3 42/4/3
f 44/4/3 40/4/3 43/4/3
f 45/4/3 41/4/3 39/4/3
f 46/4/3 41/4/3 45/4/3
f 47/1/3 42/1/3 41/1/3
f 47/4/3 41/4/3 46/4/3
f 48/4/3 43/4/3 42/4/3
f 48/1/3 42/1/3 47/1/3
f 49/4/3 43/4/3 48/4/3
f 50/4/3 43/4/3 49/4/3
f 51/1/3 44/1/3 43/1/3
f 51/4/3 43/4/3 50/4/3
f 52/4/3 40/4/3 44/4/3
f 52/1/3 44/1/3 51/1/3
f 53/1/3 46/1/3 45/1/3
f 53/4/3 45/4/3 39/4/3
f 54/4/3 47/4/3 46/4/3
f 54/1/3 46/1/3 53/1/3
f 54/4/3 48/4/3 47/4/3
f 54/4/3 49/4/3 48/4/3
f 55/4/3 49/4/3 54/4/3
f 56/4/3 49/4/3 55/4/3
f 57/1/3 50/1/3 49/1/3
f 57/4/3 49/4/3 56/4/3
f 58/4/3 51/4/3 50/4/3
f 58/1/3 50/1/3 57/1/3
f 58/4/3 52/4/3 51/4/3
f 59/4/3 52/4/3 58/4/3
f 60/4/3 40/4/3 52/4/3
f 60/4/3 52/4/3 59/4/3
f 61/1/3 56/1/3 55/1/3
f 61/4/3 55/4/3 54/4/3
f 61/4/3 54/4/3 53/4/3
f 62/4/3 57/4/3 56/4/3
f 62/1/3 56/1/3 61/1/3
f 62/4/3 59/4/3 58/4/3
f 62/4/3 58/4/3 57/4/3
f 63/1/3 60/1/3 59/1/3
f 63/4/3 59/4/3 62/4/3
f 64/4/3 40/4/3 60/4/3
f 64/1/3 60/1/3 63/1/3
f 65/4/3 61/4/3 53/4/3
f 65/4/3 62/4/3 61/4/3
f 65/4/3 64/4/3 63/4/3
f 65/4/3 63/4/3 62/4/3
f 65/4/3 53/4/3 39/4/3
f 66/4/3 40/4/3 64/4/3
f 66/4/3 64/4/3 65/4/3
f 69/5/3 68/5/3 67/5/3
f 70/5/3 68/5/3 69/5/3
f 71/4/4 72/4/4 73/4/4
f 73/4/4 72/4/4 74/4/4
f 74/4/4 72/4/4 75/4/4
f 75/4/4 72/4/4 76/4/4
f 76/4/4 72/4/4 77/4/4
f 77/4/4 72/4/4 78/4/4
f 71/4/4 73/4/4 79/4/4
f 79/4/4 73/4/4 80/4/4
f 73/1/4 74/1/4 81/1/4
f 80/4/4 73/4/4 81/4/4
f 74/4/4 75/4/4 82/4/4
f 81/1/4 74/1/4 82/1/4
f 79/1/4 80/1/4 83/1/4
f 71/4/4 79/4/4 83/4/4
f 80/4/4 81/4/4 84/4/4
f 83/1/4 80/1/4 84/1/4
f 81/4/4 82/4/4 84/4/4
f 84/4/4 82/4/4 85/4/4
f 82/4/4 75/4/4 86/4/4
f 85/4/4 82/4/4 86/4/4
f 84/4/4 85/4/4 87/4/4
f 83/4/4 84/4/4 87/4/4
f 85/1/4 86/1/4 87/1/4
f 86/4/4 75/4/4 88/4/4
f 87/1/4 86/1/4 88/1/4
f 88/4/4 75/4/4 89/4/4
f 83/4/4 87/4/4 93/4/4
f 91/4/4 92/4/4 93/4/4
f 90/4/4 91/4/4 93/4/4
f 89/4/4 90/4/4 93/4/4
f 88/4/4 89/4/4 93/4/4
f 87/4/4 88/4/4 93/4/4
f 71/4/4 83/4/4 93/4/4
f 93/4/4 92/4/4 94/4/4
f 97/5/4 98/5/4 99/5/4
f 99/5/4 98/5/4 100/5/4
f 97/5/4 99/5/4 101/5/4
f 100/5/4 98/5/4 102/5/4
f 95/2/4 96/2/4 103/2/4
f 96/3/4 97/3/4 104/3/4
f 103/2/4 96/2/4 104/2/4
f 101/5/4 102/5/4 105/5/4
f 104/3/4 97/3/4 105/3/4
f 97/5/4 101/5/4 105/5/4
f 102/5/4 98/5/4 106/5/4
f 105/5/4 102/5/4 106/5/4
f 107/6/4 108/6/4 109/6/4
f 109/6/4 108/6/4 110/6/4
f 113/4/5 112/4/5 111/4/5
f 114/4/5 112/4/5 113/4/5
f 117/2/5 116/2/5 115/2/5
f 118/2/5 116/2/5 117/2/5
f 121/6/5 120/6/5 119/6/5
f 122/6/5 120/6/5 121/6/5
f 123/4/6 124/4/6 125/4/6
f 125/4/6 124/4/6 126/4/6
f 126/4/6 124/4/6 127/4/6
f 127/4/6 124/4/6 128/4/6
f 129/6/6 130/6/6 131/6/6
f 131/6/6 130/6/6 132/6/6
f 133/5/6 134/5/6 135/5/6
f 135/5/6 134/5/6 136/5/6
